<?xml version="1.0" encoding="utf-8"?>
<!-- Generator: Adobe Illustrator 16.0.4, SVG Export Plug-In . SVG Version: 6.00 Build 0)  -->
<!DOCTYPE svg PUBLIC "-//W3C//DTD SVG 1.1//EN" "http://www.w3.org/Graphics/SVG/1.1/DTD/svg11.dtd">
<svg version="1.1" id="Calque_1" xmlns="http://www.w3.org/2000/svg" xmlns:xlink="http://www.w3.org/1999/xlink" x="0px" y="0px"
	 width="258.75px" height="76px" viewBox="0 0 258.75 76" enable-background="new 0 0 258.75 76" xml:space="preserve">
<g>
	<path fill="#FFFFFF" d="M58.491,35.704H31.003v7.739h19.708c-0.473,4.24-1.926,7.603-4.325,10.002
		c-3.92,3.919-8.894,5.907-14.783,5.907c-5.54,0-10.401-1.978-14.449-5.877c-4.041-3.895-6.09-9.032-6.09-15.271
		s2.049-11.376,6.09-15.27c4.047-3.9,8.908-5.877,14.449-5.877c6.12,0,10.979,2.102,14.443,6.248l0.421,0.503l5.644-5.644
		l-0.354-0.421c-2.18-2.595-5.12-4.697-8.739-6.249c-3.608-1.546-7.448-2.33-11.414-2.33c-7.984,0-14.867,2.809-20.458,8.348
		c-5.592,5.54-8.428,12.501-8.428,20.69c0,8.189,2.835,15.151,8.428,20.69c5.591,5.539,12.474,8.348,20.458,8.348
		c8.344,0,15.218-2.774,20.422-8.236c4.607-4.606,6.943-10.863,6.943-18.597c0-1.343-0.131-2.76-0.39-4.211L58.491,35.704z"/>
	<rect x="65.068" y="10.383" fill="#FFFFFF" width="8.196" height="55.643"/>
	<path fill="#FFFFFF" d="M106.28,48.698c0,2.891-0.878,5.479-2.61,7.69c-1.72,2.198-3.878,3.268-6.599,3.268
		c-5.787,0-8.6-3.212-8.6-9.817V27.568h-8.196v23.412c0,4.89,1.263,8.857,3.754,11.793c2.514,2.967,6.237,4.471,11.065,4.471
		c2.527,0,4.955-0.653,7.216-1.941c1.77-1.008,3.201-2.203,4.273-3.564v4.289h7.892V27.568h-8.196V48.698z"/>
	<path fill="#FFFFFF" d="M148.833,53.026c-1.89,4.461-5.241,6.63-10.245,6.63c-2.946,0-5.476-1.182-7.735-3.61
		c-2.24-2.408-3.375-5.52-3.375-9.248c0-3.728,1.135-6.84,3.375-9.249c2.229-2.396,4.831-3.611,7.735-3.611
		c4.793,0,8.02,2.167,9.863,6.625l0.23,0.556l7.492-3.122l-0.227-0.552c-1.304-3.181-3.392-5.851-6.204-7.934
		c-2.831-2.097-6.431-3.16-10.698-3.16c-5.721,0-10.497,1.969-14.197,5.851c-3.693,3.874-5.565,8.785-5.565,14.596
		c0,5.812,1.873,10.723,5.564,14.595c3.699,3.883,8.476,5.851,14.198,5.851c4.268,0,7.904-1.075,10.809-3.195
		c2.891-2.108,5.017-4.765,6.321-7.896l0.229-0.549l-7.335-3.131L148.833,53.026z"/>
	<rect x="161.712" y="27.568" fill="#FFFFFF" width="8.195" height="38.458"/>
	<path fill="#FFFFFF" d="M165.81,9.775c-1.526,0-2.847,0.545-3.923,1.621c-1.074,1.076-1.619,2.395-1.619,3.922
		c0,1.528,0.545,2.848,1.619,3.922c1.075,1.075,2.395,1.621,3.923,1.621c1.526,0,2.847-0.545,3.923-1.621
		c1.074-1.076,1.619-2.395,1.619-3.922c0-1.526-0.545-2.845-1.62-3.922C168.655,10.32,167.335,9.775,165.81,9.775z"/>
	<path fill="#FFFFFF" d="M205.738,28.203l0.209,3.554c-1.112-1.36-2.58-2.537-4.381-3.509c-2.335-1.259-5.002-1.897-7.928-1.897
		c-4.968,0-9.312,1.984-12.911,5.897c-3.587,3.898-5.405,8.793-5.405,14.55c0,5.756,1.818,10.65,5.405,14.549
		c3.6,3.913,7.943,5.896,12.911,5.896c2.926,0,5.593-0.638,7.928-1.896c1.853-1,3.353-2.216,4.476-3.626v4.306h7.891V10.383h-8.195
		L205.738,28.203z M202.746,37.401c2.187,2.307,3.296,5.469,3.296,9.397c0,3.928-1.109,7.089-3.296,9.396
		c-2.21,2.33-4.815,3.463-7.967,3.463c-3.06,0-5.727-1.178-7.929-3.501c-2.212-2.33-3.333-5.479-3.333-9.357
		c0-3.878,1.122-7.026,3.333-9.358c2.203-2.323,4.87-3.501,7.929-3.501C197.931,33.938,200.536,35.071,202.746,37.401z"/>
	<path fill="#FFFFFF" d="M256.438,46.798c0-6.159-1.729-11.157-5.139-14.854c-3.424-3.711-8.036-5.592-13.71-5.592
		c-5.478,0-10.042,2.039-13.567,6.06c-3.505,3.999-5.281,8.839-5.281,14.387c0,5.86,1.833,10.782,5.447,14.63
		c3.623,3.859,8.389,5.815,14.162,5.815c4.16,0,7.729-1.021,10.608-3.036c2.87-2.008,4.961-4.538,6.217-7.521l0.234-0.556
		l-7.346-3.045l-0.23,0.553c-1.688,4.049-4.841,6.018-9.636,6.018c-2.921,0-5.507-1.045-7.686-3.106
		c-2.052-1.937-3.238-4.578-3.531-7.86h29.349L256.438,46.798z M231.098,36.229c1.78-1.52,3.913-2.29,6.34-2.29
		c3.357,0,5.909,0.908,7.583,2.699c1.511,1.619,2.415,3.323,2.693,5.074h-20.126C228.298,39.454,229.476,37.612,231.098,36.229z"/>
</g>
</svg>
